<svg id="visual" viewBox="0 0 900 600" width="900" height="600" xmlns="http://www.w3.org/2000/svg" xmlns:xlink="http://www.w3.org/1999/xlink" version="1.1"><path d="M0 139L37.5 134.8C75 130.7 150 122.3 225 157.7C300 193 375 272 450 329.3C525 386.7 600 422.3 675 425.3C750 428.3 825 398.7 862.5 383.8L900 369L900 0L862.5 0C825 0 750 0 675 0C600 0 525 0 450 0C375 0 300 0 225 0C150 0 75 0 37.5 0L0 0Z" fill="#fb923c"></path><path d="M0 105L37.5 97.5C75 90 150 75 225 87.5C300 100 375 140 450 185.7C525 231.3 600 282.7 675 290C750 297.3 825 260.7 862.5 242.3L900 224L900 0L862.5 0C825 0 750 0 675 0C600 0 525 0 450 0C375 0 300 0 225 0C150 0 75 0 37.5 0L0 0Z" fill="#f37724"></path><path d="M0 138L37.5 144.2C75 150.3 150 162.7 225 149.2C300 135.7 375 96.3 450 69.3C525 42.3 600 27.7 675 48.7C750 69.7 825 126.3 862.5 154.7L900 183L900 0L862.5 0C825 0 750 0 675 0C600 0 525 0 450 0C375 0 300 0 225 0C150 0 75 0 37.5 0L0 0Z" fill="#ea580c"></path></svg>